Coordinates
version=1
nRows=8
nColumns=36
inDegrees=yes

Units are S.I. units (second, meters, Newtons, ...)
If the header above contains a line with 'inDegrees', this indicates whether rotational values are in degrees (yes) or radians (no).

endheader
time	pelvis_tilt	pelvis_list	pelvis_rotation	pelvis_tx	pelvis_ty	pelvis_tz	hip_flexion_r	hip_adduction_r	hip_rotation_r	knee_angle_r	knee_angle_r_beta	ankle_angle_r	subtalar_angle_r	mtp_angle_r	hip_flexion_l	hip_adduction_l	hip_rotation_l	knee_angle_l	knee_angle_l_beta	ankle_angle_l	subtalar_angle_l	mtp_angle_l	lumbar_extension	lumbar_bending	lumbar_rotation	arm_flex_r	arm_add_r	arm_rot_r	elbow_flex_r	pro_sup_r	arm_flex_l	arm_add_l	arm_rot_l	elbow_flex_l	pro_sup_l
      0.00000000	     23.90474922	      3.49457746	      4.73674316	      0.13294467	      1.19488621	      0.19891432	    -23.99762074	      2.03121425	     -3.20965011	      9.04587191	      0.15788025	     13.67332371	    -11.30621436	     -6.77112774	    -26.70639158	     -0.51604879	     -5.70362885	      2.91675568	      0.05090699	     13.48629205	     -2.79912732	     -6.77112774	    -40.53596185	      1.21284721	      2.17761651	     -2.33172210	    -15.16641165	     53.17980452	     61.59487850	     78.27591742	      2.23772569	    -11.28247858	     36.77503529	     69.15107362	     81.84870913
      0.01666670	     24.29212391	      4.60610025	      3.84892669	      0.13176489	      1.19899806	      0.19988563	    -23.39823734	      0.80537580	     -2.89769766	     10.86694699	      0.18966400	     16.09710694	    -10.90184432	     -6.86955446	    -26.27707017	      1.47210749	     -6.03299361	      4.25466131	      0.07425785	     14.23461136	     -2.05346370	     -6.86955446	    -41.73064439	      0.16816790	      2.31268382	     -2.03398822	    -15.07194444	     55.10500616	     61.62137362	     77.89842238	      1.86608981	    -11.87207895	     38.39009134	     70.26691087	     81.31094848
      0.03333330	     24.65941069	      5.38023873	      3.27919204	      0.13168682	      1.20040472	      0.20109271	    -24.57582515	     -0.06804514	     -4.03201582	      9.40470182	      0.16414301	     15.85854633	    -10.46374923	     -7.32616621	    -27.23279031	      2.48316402	     -7.03540875	      3.38467736	      0.05907376	     14.71893154	     -0.66387884	     -7.32616621	    -41.87228250	     -0.96110575	      2.21674426	     -1.25716804	    -14.57258099	     55.70864392	     61.02186980	     82.62747787	      1.71098338	    -12.68564598	     39.39316043	     70.59066772	     86.27509554
      0.05000000	     25.45399739	      5.69969773	      2.97312151	      0.13199202	      1.20208983	      0.20170828	    -26.06018538	     -0.42075023	     -4.60243445	      8.35855080	      0.14588423	     15.65403184	     -9.61036724	     -7.41448240	    -28.78563694	      2.98106977	     -7.21931120	      2.46919807	      0.04309564	     14.51272074	     -0.74743089	     -7.41448240	    -42.52956502	     -1.38589141	      2.37877732	     -1.01017849	    -14.34168712	     56.31506165	     60.79430601	     74.97683325	      1.96840280	    -13.11857295	     41.80329547	     70.78500292	     78.64215658
      0.06666670	     25.59729351	      5.86921585	      2.98637630	      0.13130637	      1.20423349	      0.20217677	    -26.80338833	     -0.42856311	     -4.57681756	      7.17633320	      0.12525064	     14.55435345	     -9.99516001	     -7.48370452	    -29.16977443	      3.20494892	     -7.30030869	      2.08276115	      0.03635104	     14.24153317	     -0.91506853	     -7.48370452	    -42.72403049	     -1.50444834	      2.76663524	     -1.49873547	    -13.83741817	     53.85864635	     60.18948179	     89.87759723	      2.55914428	    -12.83416886	     42.38219906	     69.45575995	     96.57291292
      0.08333330	     25.65614262	      5.86860684	      3.06699140	      0.13200289	      1.20280544	      0.20170877	    -27.29740515	     -0.28518883	     -4.10596054	      6.26488414	      0.10934286	     13.34308163	    -10.75448063	     -7.49789118	    -29.34128999	      3.23869803	     -7.01039635	      1.78719684	      0.03119247	     13.61446640	     -1.71101334	     -7.49789118	    -42.80292498	     -1.36762606	      3.02911722	     -1.58996844	    -13.91317359	     52.69548555	     60.66801198	     91.15368167	      3.05858389	    -12.83005165	     44.20862414	     68.62860406	     99.91520124
      0.10000000	     25.67061901	      5.84129250	      3.12284286	      0.13217394	      1.20403565	      0.20180399	    -27.64570135	     -0.16725295	     -3.92224474	      5.57393797	      0.09728357	     12.50748661	    -10.99254902	     -7.49976409	    -29.42474460	      3.23754773	     -7.20449921	      1.59918857	      0.02791111	     13.37355802	     -1.65543215	     -7.49976409	    -42.82183185	     -1.23398622	      3.19144403	     -1.65889971	    -13.97154953	     51.89214576	     60.94988981	     92.92459907	      3.47944229	    -12.73486932	     45.40405420	     67.88589843	    101.09032486
      0.11666670	     25.69113764	      5.81302960	      3.20930053	      0.13135481	      1.20415448	      0.20173338	    -27.95593760	     -0.02079054	     -3.40362539	      4.90905292	      0.08567914	     11.56553698	    -11.74822626	     -7.49998284	    -29.45758722	      3.20177886	     -7.08557908	      1.41623487	      0.02471796	     12.93850452	     -1.97558014	     -7.49998284	    -42.92445590	     -1.11753745	      3.30513379	     -1.67314782	    -14.03793073	     51.30587666	     61.17652171	     94.66770556	      3.85965186	    -12.64733883	     46.19124541	     67.34369928	    102.88731622
